<svg width="142" height="38" viewBox="0 0 142 38" fill="none" xmlns="http://www.w3.org/2000/svg">
<path d="M3.704 1.848C4.92 1.848 5.97067 2.07733 6.856 2.536C7.752 2.984 8.43467 3.62933 8.904 4.472C9.384 5.31467 9.624 6.30667 9.624 7.448C9.624 8.58933 9.384 9.58133 8.904 10.424C8.43467 11.256 7.752 11.896 6.856 12.344C5.97067 12.7813 4.92 13 3.704 13H0.232V1.848H3.704ZM3.704 11.8C5.144 11.8 6.24267 11.4213 7 10.664C7.75733 9.896 8.136 8.824 8.136 7.448C8.136 6.06133 7.752 4.97867 6.984 4.2C6.22667 3.42133 5.13333 3.032 3.704 3.032H1.688V11.8H3.704ZM19.5445 8.28C19.5445 8.55733 19.5285 8.85067 19.4965 9.16H12.4885C12.5418 10.024 12.8352 10.7013 13.3685 11.192C13.9125 11.672 14.5685 11.912 15.3365 11.912C15.9658 11.912 16.4885 11.768 16.9045 11.48C17.3312 11.1813 17.6298 10.7867 17.8005 10.296H19.3685C19.1338 11.1387 18.6645 11.8267 17.9605 12.36C17.2565 12.8827 16.3818 13.144 15.3365 13.144C14.5045 13.144 13.7578 12.9573 13.0965 12.584C12.4458 12.2107 11.9338 11.6827 11.5605 11C11.1872 10.3067 11.0005 9.50667 11.0005 8.6C11.0005 7.69333 11.1818 6.89867 11.5445 6.216C11.9072 5.53333 12.4138 5.01067 13.0645 4.648C13.7258 4.27467 14.4832 4.088 15.3365 4.088C16.1685 4.088 16.9045 4.26933 17.5445 4.632C18.1845 4.99467 18.6752 5.496 19.0165 6.136C19.3685 6.76533 19.5445 7.48 19.5445 8.28ZM18.0405 7.976C18.0405 7.42133 17.9178 6.94667 17.6725 6.552C17.4272 6.14667 17.0912 5.84267 16.6645 5.64C16.2485 5.42667 15.7845 5.32 15.2725 5.32C14.5365 5.32 13.9072 5.55467 13.3845 6.024C12.8725 6.49333 12.5792 7.144 12.5045 7.976H18.0405ZM24.5704 13.144C23.8984 13.144 23.2957 13.032 22.7624 12.808C22.229 12.5733 21.8077 12.2533 21.4984 11.848C21.189 11.432 21.0184 10.9573 20.9864 10.424H22.4904C22.533 10.8613 22.7357 11.2187 23.0984 11.496C23.4717 11.7733 23.957 11.912 24.5544 11.912C25.109 11.912 25.5464 11.7893 25.8664 11.544C26.1864 11.2987 26.3464 10.9893 26.3464 10.616C26.3464 10.232 26.1757 9.94933 25.8344 9.768C25.493 9.576 24.965 9.38933 24.2504 9.208C23.5997 9.03733 23.0664 8.86667 22.6504 8.696C22.245 8.51467 21.893 8.25333 21.5944 7.912C21.3064 7.56 21.1624 7.10133 21.1624 6.536C21.1624 6.088 21.2957 5.67733 21.5624 5.304C21.829 4.93067 22.2077 4.63733 22.6984 4.424C23.189 4.2 23.749 4.088 24.3784 4.088C25.349 4.088 26.133 4.33333 26.7304 4.824C27.3277 5.31467 27.6477 5.98667 27.6904 6.84H26.2344C26.2024 6.38133 26.0157 6.01333 25.6744 5.736C25.3437 5.45867 24.8957 5.32 24.3304 5.32C23.8077 5.32 23.3917 5.432 23.0824 5.656C22.773 5.88 22.6184 6.17333 22.6184 6.536C22.6184 6.824 22.709 7.064 22.8904 7.256C23.0824 7.43733 23.317 7.58667 23.5944 7.704C23.8824 7.81067 24.277 7.93333 24.7784 8.072C25.4077 8.24267 25.9197 8.41333 26.3144 8.584C26.709 8.744 27.045 8.98933 27.3224 9.32C27.6104 9.65067 27.7597 10.0827 27.7704 10.616C27.7704 11.096 27.637 11.528 27.3704 11.912C27.1037 12.296 26.725 12.6 26.2344 12.824C25.7544 13.0373 25.1997 13.144 24.5704 13.144ZM30.5778 2.808C30.3004 2.808 30.0658 2.712 29.8738 2.52C29.6818 2.328 29.5858 2.09333 29.5858 1.816C29.5858 1.53867 29.6818 1.304 29.8738 1.112C30.0658 0.919999 30.3004 0.823999 30.5778 0.823999C30.8444 0.823999 31.0684 0.919999 31.2498 1.112C31.4418 1.304 31.5378 1.53867 31.5378 1.816C31.5378 2.09333 31.4418 2.328 31.2498 2.52C31.0684 2.712 30.8444 2.808 30.5778 2.808ZM31.2818 4.232V13H29.8258V4.232H31.2818ZM37.3793 4.088C38.1366 4.088 38.7979 4.25333 39.3633 4.584C39.9393 4.91467 40.3659 5.33067 40.6433 5.832V4.232H42.1153V13.192C42.1153 13.992 41.9446 14.7013 41.6033 15.32C41.2619 15.9493 40.7713 16.44 40.1313 16.792C39.5019 17.144 38.7659 17.32 37.9233 17.32C36.7713 17.32 35.8113 17.048 35.0433 16.504C34.2753 15.96 33.8219 15.2187 33.6833 14.28H35.1233C35.2833 14.8133 35.6139 15.24 36.1153 15.56C36.6166 15.8907 37.2193 16.056 37.9233 16.056C38.7233 16.056 39.3739 15.8053 39.8753 15.304C40.3873 14.8027 40.6433 14.0987 40.6433 13.192V11.352C40.3553 11.864 39.9286 12.2907 39.3633 12.632C38.7979 12.9733 38.1366 13.144 37.3793 13.144C36.6006 13.144 35.8913 12.952 35.2513 12.568C34.6219 12.184 34.1259 11.6453 33.7633 10.952C33.4006 10.2587 33.2193 9.46933 33.2193 8.584C33.2193 7.688 33.4006 6.904 33.7633 6.232C34.1259 5.54933 34.6219 5.02133 35.2513 4.648C35.8913 4.27467 36.6006 4.088 37.3793 4.088ZM40.6433 8.6C40.6433 7.93867 40.5099 7.36267 40.2433 6.872C39.9766 6.38133 39.6139 6.008 39.1553 5.752C38.7073 5.48533 38.2113 5.352 37.6673 5.352C37.1233 5.352 36.6273 5.48 36.1793 5.736C35.7313 5.992 35.3739 6.36533 35.1073 6.856C34.8406 7.34667 34.7073 7.92267 34.7073 8.584C34.7073 9.256 34.8406 9.84267 35.1073 10.344C35.3739 10.8347 35.7313 11.2133 36.1793 11.48C36.6273 11.736 37.1233 11.864 37.6673 11.864C38.2113 11.864 38.7073 11.736 39.1553 11.48C39.6139 11.2133 39.9766 10.8347 40.2433 10.344C40.5099 9.84267 40.6433 9.26133 40.6433 8.6ZM48.8478 4.072C49.9144 4.072 50.7784 4.39733 51.4398 5.048C52.1011 5.688 52.4318 6.616 52.4318 7.832V13H50.9918V8.04C50.9918 7.16533 50.7731 6.49867 50.3358 6.04C49.8984 5.57067 49.3011 5.336 48.5438 5.336C47.7758 5.336 47.1624 5.576 46.7038 6.056C46.2558 6.536 46.0318 7.23467 46.0318 8.152V13H44.5758V4.232H46.0318V5.48C46.3198 5.032 46.7091 4.68533 47.1998 4.44C47.7011 4.19467 48.2504 4.072 48.8478 4.072ZM62.8101 8.28C62.8101 8.55733 62.7941 8.85067 62.7621 9.16H55.7541C55.8075 10.024 56.1008 10.7013 56.6341 11.192C57.1781 11.672 57.8341 11.912 58.6021 11.912C59.2315 11.912 59.7541 11.768 60.1701 11.48C60.5968 11.1813 60.8955 10.7867 61.0661 10.296H62.6341C62.3995 11.1387 61.9301 11.8267 61.2261 12.36C60.5221 12.8827 59.6475 13.144 58.6021 13.144C57.7701 13.144 57.0235 12.9573 56.3621 12.584C55.7115 12.2107 55.1995 11.6827 54.8261 11C54.4528 10.3067 54.2661 9.50667 54.2661 8.6C54.2661 7.69333 54.4475 6.89867 54.8101 6.216C55.1728 5.53333 55.6795 5.01067 56.3301 4.648C56.9915 4.27467 57.7488 4.088 58.6021 4.088C59.4341 4.088 60.1701 4.26933 60.8101 4.632C61.4501 4.99467 61.9408 5.496 62.2821 6.136C62.6341 6.76533 62.8101 7.48 62.8101 8.28ZM61.3061 7.976C61.3061 7.42133 61.1835 6.94667 60.9381 6.552C60.6928 6.14667 60.3568 5.84267 59.9301 5.64C59.5141 5.42667 59.0501 5.32 58.5381 5.32C57.8021 5.32 57.1728 5.55467 56.6501 6.024C56.1381 6.49333 55.8448 7.144 55.7701 7.976H61.3061ZM64.188 8.584C64.188 7.688 64.3693 6.904 64.732 6.232C65.0947 5.54933 65.5907 5.02133 66.22 4.648C66.86 4.27467 67.5747 4.088 68.364 4.088C69.0467 4.088 69.6813 4.248 70.268 4.568C70.8547 4.87733 71.3027 5.288 71.612 5.8V1.16H73.084V13H71.612V11.352C71.324 11.8747 70.8973 12.3067 70.332 12.648C69.7667 12.9787 69.1053 13.144 68.348 13.144C67.5693 13.144 66.86 12.952 66.22 12.568C65.5907 12.184 65.0947 11.6453 64.732 10.952C64.3693 10.2587 64.188 9.46933 64.188 8.584ZM71.612 8.6C71.612 7.93867 71.4787 7.36267 71.212 6.872C70.9453 6.38133 70.5827 6.008 70.124 5.752C69.676 5.48533 69.18 5.352 68.636 5.352C68.092 5.352 67.596 5.48 67.148 5.736C66.7 5.992 66.3427 6.36533 66.076 6.856C65.8093 7.34667 65.676 7.92267 65.676 8.584C65.676 9.256 65.8093 9.84267 66.076 10.344C66.3427 10.8347 66.7 11.2133 67.148 11.48C67.596 11.736 68.092 11.864 68.636 11.864C69.18 11.864 69.676 11.736 70.124 11.48C70.5827 11.2133 70.9453 10.8347 71.212 10.344C71.4787 9.84267 71.612 9.26133 71.612 8.6ZM81.2661 5.864C81.5648 5.34133 82.0021 4.91467 82.5781 4.584C83.1541 4.25333 83.8101 4.088 84.5461 4.088C85.3355 4.088 86.0448 4.27467 86.6741 4.648C87.3035 5.02133 87.7995 5.54933 88.1621 6.232C88.5248 6.904 88.7061 7.688 88.7061 8.584C88.7061 9.46933 88.5248 10.2587 88.1621 10.952C87.7995 11.6453 87.2981 12.184 86.6581 12.568C86.0288 12.952 85.3248 13.144 84.5461 13.144C83.7888 13.144 83.1221 12.9787 82.5461 12.648C81.9808 12.3173 81.5541 11.896 81.2661 11.384V13H79.8101V1.16H81.2661V5.864ZM87.2181 8.584C87.2181 7.92267 87.0848 7.34667 86.8181 6.856C86.5515 6.36533 86.1888 5.992 85.7301 5.736C85.2821 5.48 84.7861 5.352 84.2421 5.352C83.7088 5.352 83.2128 5.48533 82.7541 5.752C82.3061 6.008 81.9435 6.38667 81.6661 6.888C81.3995 7.37867 81.2661 7.94933 81.2661 8.6C81.2661 9.26133 81.3995 9.84267 81.6661 10.344C81.9435 10.8347 82.3061 11.2133 82.7541 11.48C83.2128 11.736 83.7088 11.864 84.2421 11.864C84.7861 11.864 85.2821 11.736 85.7301 11.48C86.1888 11.2133 86.5515 10.8347 86.8181 10.344C87.0848 9.84267 87.2181 9.256 87.2181 8.584ZM98.1746 4.232L92.8946 17.128H91.3906L93.1186 12.904L89.5826 4.232H91.1986L93.9506 11.336L96.6706 4.232H98.1746ZM1.656 25.848V32.904C1.656 33.896 1.896 34.632 2.376 35.112C2.86667 35.592 3.544 35.832 4.408 35.832C5.26133 35.832 5.928 35.592 6.408 35.112C6.89867 34.632 7.144 33.896 7.144 32.904V25.848H8.6V32.888C8.6 33.816 8.41333 34.6 8.04 35.24C7.66667 35.8693 7.16 36.3387 6.52 36.648C5.89067 36.9573 5.18133 37.112 4.392 37.112C3.60267 37.112 2.888 36.9573 2.248 36.648C1.61867 36.3387 1.11733 35.8693 0.744 35.24C0.381333 34.6 0.2 33.816 0.2 32.888V25.848H1.656ZM15.3009 28.072C16.3675 28.072 17.2315 28.3973 17.8929 29.048C18.5542 29.688 18.8849 30.616 18.8849 31.832V37H17.4449V32.04C17.4449 31.1653 17.2262 30.4987 16.7889 30.04C16.3515 29.5707 15.7542 29.336 14.9969 29.336C14.2289 29.336 13.6155 29.576 13.1569 30.056C12.7089 30.536 12.4849 31.2347 12.4849 32.152V37H11.0289V28.232H12.4849V29.48C12.7729 29.032 13.1622 28.6853 13.6529 28.44C14.1542 28.1947 14.7035 28.072 15.3009 28.072ZM22.0153 26.808C21.7379 26.808 21.5033 26.712 21.3113 26.52C21.1193 26.328 21.0233 26.0933 21.0233 25.816C21.0233 25.5387 21.1193 25.304 21.3113 25.112C21.5033 24.92 21.7379 24.824 22.0153 24.824C22.2819 24.824 22.5059 24.92 22.6873 25.112C22.8793 25.304 22.9753 25.5387 22.9753 25.816C22.9753 26.0933 22.8793 26.328 22.6873 26.52C22.5059 26.712 22.2819 26.808 22.0153 26.808ZM22.7193 28.232V37H21.2633V28.232H22.7193ZM24.6568 32.6C24.6568 31.6933 24.8381 30.904 25.2008 30.232C25.5634 29.5493 26.0648 29.0213 26.7048 28.648C27.3554 28.2747 28.0968 28.088 28.9288 28.088C30.0061 28.088 30.8914 28.3493 31.5848 28.872C32.2888 29.3947 32.7528 30.12 32.9768 31.048H31.4088C31.2594 30.5147 30.9661 30.0933 30.5288 29.784C30.1021 29.4747 29.5688 29.32 28.9288 29.32C28.0968 29.32 27.4248 29.608 26.9128 30.184C26.4008 30.7493 26.1448 31.5547 26.1448 32.6C26.1448 33.656 26.4008 34.472 26.9128 35.048C27.4248 35.624 28.0968 35.912 28.9288 35.912C29.5688 35.912 30.1021 35.7627 30.5288 35.464C30.9554 35.1653 31.2488 34.7387 31.4088 34.184H32.9768C32.7421 35.08 32.2728 35.8 31.5688 36.344C30.8648 36.8773 29.9848 37.144 28.9288 37.144C28.0968 37.144 27.3554 36.9573 26.7048 36.584C26.0648 36.2107 25.5634 35.6827 25.2008 35C24.8381 34.3173 24.6568 33.5173 24.6568 32.6ZM38.7435 37.144C37.9222 37.144 37.1755 36.9573 36.5035 36.584C35.8422 36.2107 35.3195 35.6827 34.9355 35C34.5622 34.3067 34.3755 33.5067 34.3755 32.6C34.3755 31.704 34.5675 30.9147 34.9515 30.232C35.3462 29.5387 35.8795 29.0107 36.5515 28.648C37.2235 28.2747 37.9755 28.088 38.8075 28.088C39.6395 28.088 40.3915 28.2747 41.0635 28.648C41.7355 29.0107 42.2635 29.5333 42.6475 30.216C43.0422 30.8987 43.2395 31.6933 43.2395 32.6C43.2395 33.5067 43.0368 34.3067 42.6315 35C42.2368 35.6827 41.6982 36.2107 41.0155 36.584C40.3328 36.9573 39.5755 37.144 38.7435 37.144ZM38.7435 35.864C39.2662 35.864 39.7568 35.7413 40.2155 35.496C40.6742 35.2507 41.0422 34.8827 41.3195 34.392C41.6075 33.9013 41.7515 33.304 41.7515 32.6C41.7515 31.896 41.6128 31.2987 41.3355 30.808C41.0582 30.3173 40.6955 29.9547 40.2475 29.72C39.7995 29.4747 39.3142 29.352 38.7915 29.352C38.2582 29.352 37.7675 29.4747 37.3195 29.72C36.8822 29.9547 36.5302 30.3173 36.2635 30.808C35.9968 31.2987 35.8635 31.896 35.8635 32.6C35.8635 33.3147 35.9915 33.9173 36.2475 34.408C36.5142 34.8987 36.8662 35.2667 37.3035 35.512C37.7408 35.7467 38.2208 35.864 38.7435 35.864ZM46.6099 29.656C46.8659 29.1547 47.2285 28.7653 47.6979 28.488C48.1779 28.2107 48.7592 28.072 49.4419 28.072V29.576H49.0579C47.4259 29.576 46.6099 30.4613 46.6099 32.232V37H45.1539V28.232H46.6099V29.656ZM55.3946 28.072C56.4613 28.072 57.3253 28.3973 57.9866 29.048C58.648 29.688 58.9786 30.616 58.9786 31.832V37H57.5386V32.04C57.5386 31.1653 57.32 30.4987 56.8826 30.04C56.4453 29.5707 55.848 29.336 55.0906 29.336C54.3226 29.336 53.7093 29.576 53.2506 30.056C52.8026 30.536 52.5786 31.2347 52.5786 32.152V37H51.1226V28.232H52.5786V29.48C52.8666 29.032 53.256 28.6853 53.7466 28.44C54.248 28.1947 54.7973 28.072 55.3946 28.072ZM77.3026 28.232L74.5666 37H73.0626L70.9506 30.04L68.8386 37H67.3346L64.5826 28.232H66.0706L68.0866 35.592L70.2626 28.232H71.7506L73.8786 35.608L75.8626 28.232H77.3026ZM79.4996 26.808C79.2223 26.808 78.9876 26.712 78.7956 26.52C78.6036 26.328 78.5076 26.0933 78.5076 25.816C78.5076 25.5387 78.6036 25.304 78.7956 25.112C78.9876 24.92 79.2223 24.824 79.4996 24.824C79.7663 24.824 79.9903 24.92 80.1716 25.112C80.3636 25.304 80.4596 25.5387 80.4596 25.816C80.4596 26.0933 80.3636 26.328 80.1716 26.52C79.9903 26.712 79.7663 26.808 79.4996 26.808ZM80.2036 28.232V37H78.7476V28.232H80.2036ZM84.4611 29.432V34.6C84.4611 35.0267 84.5518 35.3307 84.7331 35.512C84.9145 35.6827 85.2291 35.768 85.6771 35.768H86.7491V37H85.4371C84.6265 37 84.0185 36.8133 83.6131 36.44C83.2078 36.0667 83.0051 35.4533 83.0051 34.6V29.432H81.8691V28.232H83.0051V26.024H84.4611V28.232H86.7491V29.432H84.4611ZM92.7853 28.072C93.8519 28.072 94.7159 28.3973 95.3773 29.048C96.0386 29.688 96.3693 30.616 96.3693 31.832V37H94.9293V32.04C94.9293 31.1653 94.7106 30.4987 94.2733 30.04C93.8359 29.5707 93.2386 29.336 92.4813 29.336C91.7133 29.336 91.0999 29.576 90.6413 30.056C90.1933 30.536 89.9693 31.2347 89.9693 32.152V37H88.5133V28.232H89.9693V29.48C90.2573 29.032 90.6466 28.6853 91.1373 28.44C91.6386 28.1947 92.1879 28.072 92.7853 28.072ZM106.748 32.28C106.748 32.5573 106.732 32.8507 106.7 33.16H99.6916C99.745 34.024 100.038 34.7013 100.572 35.192C101.116 35.672 101.772 35.912 102.54 35.912C103.169 35.912 103.692 35.768 104.108 35.48C104.534 35.1813 104.833 34.7867 105.004 34.296H106.572C106.337 35.1387 105.868 35.8267 105.164 36.36C104.46 36.8827 103.585 37.144 102.54 37.144C101.708 37.144 100.961 36.9573 100.3 36.584C99.649 36.2107 99.137 35.6827 98.7636 35C98.3903 34.3067 98.2036 33.5067 98.2036 32.6C98.2036 31.6933 98.385 30.8987 98.7476 30.216C99.1103 29.5333 99.617 29.0107 100.268 28.648C100.929 28.2747 101.686 28.088 102.54 28.088C103.372 28.088 104.108 28.2693 104.748 28.632C105.388 28.9947 105.878 29.496 106.22 30.136C106.572 30.7653 106.748 31.48 106.748 32.28ZM105.244 31.976C105.244 31.4213 105.121 30.9467 104.876 30.552C104.63 30.1467 104.294 29.8427 103.868 29.64C103.452 29.4267 102.988 29.32 102.476 29.32C101.74 29.32 101.11 29.5547 100.588 30.024C100.076 30.4933 99.7823 31.144 99.7076 31.976H105.244ZM111.774 37.144C111.102 37.144 110.499 37.032 109.966 36.808C109.432 36.5733 109.011 36.2533 108.702 35.848C108.392 35.432 108.222 34.9573 108.19 34.424H109.694C109.736 34.8613 109.939 35.2187 110.302 35.496C110.675 35.7733 111.16 35.912 111.758 35.912C112.312 35.912 112.75 35.7893 113.07 35.544C113.39 35.2987 113.55 34.9893 113.55 34.616C113.55 34.232 113.379 33.9493 113.038 33.768C112.696 33.576 112.168 33.3893 111.454 33.208C110.803 33.0373 110.27 32.8667 109.854 32.696C109.448 32.5147 109.096 32.2533 108.798 31.912C108.51 31.56 108.366 31.1013 108.366 30.536C108.366 30.088 108.499 29.6773 108.766 29.304C109.032 28.9307 109.411 28.6373 109.902 28.424C110.392 28.2 110.952 28.088 111.582 28.088C112.552 28.088 113.336 28.3333 113.934 28.824C114.531 29.3147 114.851 29.9867 114.894 30.84H113.438C113.406 30.3813 113.219 30.0133 112.878 29.736C112.547 29.4587 112.099 29.32 111.534 29.32C111.011 29.32 110.595 29.432 110.286 29.656C109.976 29.88 109.822 30.1733 109.822 30.536C109.822 30.824 109.912 31.064 110.094 31.256C110.286 31.4373 110.52 31.5867 110.798 31.704C111.086 31.8107 111.48 31.9333 111.982 32.072C112.611 32.2427 113.123 32.4133 113.518 32.584C113.912 32.744 114.248 32.9893 114.526 33.32C114.814 33.6507 114.963 34.0827 114.974 34.616C114.974 35.096 114.84 35.528 114.574 35.912C114.307 36.296 113.928 36.6 113.438 36.824C112.958 37.0373 112.403 37.144 111.774 37.144ZM120.133 37.144C119.461 37.144 118.858 37.032 118.325 36.808C117.792 36.5733 117.37 36.2533 117.061 35.848C116.752 35.432 116.581 34.9573 116.549 34.424H118.053C118.096 34.8613 118.298 35.2187 118.661 35.496C119.034 35.7733 119.52 35.912 120.117 35.912C120.672 35.912 121.109 35.7893 121.429 35.544C121.749 35.2987 121.909 34.9893 121.909 34.616C121.909 34.232 121.738 33.9493 121.397 33.768C121.056 33.576 120.528 33.3893 119.813 33.208C119.162 33.0373 118.629 32.8667 118.213 32.696C117.808 32.5147 117.456 32.2533 117.157 31.912C116.869 31.56 116.725 31.1013 116.725 30.536C116.725 30.088 116.858 29.6773 117.125 29.304C117.392 28.9307 117.77 28.6373 118.261 28.424C118.752 28.2 119.312 28.088 119.941 28.088C120.912 28.088 121.696 28.3333 122.293 28.824C122.89 29.3147 123.21 29.9867 123.253 30.84H121.797C121.765 30.3813 121.578 30.0133 121.237 29.736C120.906 29.4587 120.458 29.32 119.893 29.32C119.37 29.32 118.954 29.432 118.645 29.656C118.336 29.88 118.181 30.1733 118.181 30.536C118.181 30.824 118.272 31.064 118.453 31.256C118.645 31.4373 118.88 31.5867 119.157 31.704C119.445 31.8107 119.84 31.9333 120.341 32.072C120.97 32.2427 121.482 32.4133 121.877 32.584C122.272 32.744 122.608 32.9893 122.885 33.32C123.173 33.6507 123.322 34.0827 123.333 34.616C123.333 35.096 123.2 35.528 122.933 35.912C122.666 36.296 122.288 36.6 121.797 36.824C121.317 37.0373 120.762 37.144 120.133 37.144ZM133.388 32.28C133.388 32.5573 133.372 32.8507 133.34 33.16H126.332C126.386 34.024 126.679 34.7013 127.212 35.192C127.756 35.672 128.412 35.912 129.18 35.912C129.81 35.912 130.332 35.768 130.748 35.48C131.175 35.1813 131.474 34.7867 131.644 34.296H133.212C132.978 35.1387 132.508 35.8267 131.804 36.36C131.1 36.8827 130.226 37.144 129.18 37.144C128.348 37.144 127.602 36.9573 126.94 36.584C126.29 36.2107 125.778 35.6827 125.404 35C125.031 34.3067 124.844 33.5067 124.844 32.6C124.844 31.6933 125.026 30.8987 125.388 30.216C125.751 29.5333 126.258 29.0107 126.908 28.648C127.57 28.2747 128.327 28.088 129.18 28.088C130.012 28.088 130.748 28.2693 131.388 28.632C132.028 28.9947 132.519 29.496 132.86 30.136C133.212 30.7653 133.388 31.48 133.388 32.28ZM131.884 31.976C131.884 31.4213 131.762 30.9467 131.516 30.552C131.271 30.1467 130.935 29.8427 130.508 29.64C130.092 29.4267 129.628 29.32 129.116 29.32C128.38 29.32 127.751 29.5547 127.228 30.024C126.716 30.4933 126.423 31.144 126.348 31.976H131.884ZM138.414 37.144C137.742 37.144 137.139 37.032 136.606 36.808C136.073 36.5733 135.651 36.2533 135.342 35.848C135.033 35.432 134.862 34.9573 134.83 34.424H136.334C136.377 34.8613 136.579 35.2187 136.942 35.496C137.315 35.7733 137.801 35.912 138.398 35.912C138.953 35.912 139.39 35.7893 139.71 35.544C140.03 35.2987 140.19 34.9893 140.19 34.616C140.19 34.232 140.019 33.9493 139.678 33.768C139.337 33.576 138.809 33.3893 138.094 33.208C137.443 33.0373 136.91 32.8667 136.494 32.696C136.089 32.5147 135.737 32.2533 135.438 31.912C135.15 31.56 135.006 31.1013 135.006 30.536C135.006 30.088 135.139 29.6773 135.406 29.304C135.673 28.9307 136.051 28.6373 136.542 28.424C137.033 28.2 137.593 28.088 138.222 28.088C139.193 28.088 139.977 28.3333 140.574 28.824C141.171 29.3147 141.491 29.9867 141.534 30.84H140.078C140.046 30.3813 139.859 30.0133 139.518 29.736C139.187 29.4587 138.739 29.32 138.174 29.32C137.651 29.32 137.235 29.432 136.926 29.656C136.617 29.88 136.462 30.1733 136.462 30.536C136.462 30.824 136.553 31.064 136.734 31.256C136.926 31.4373 137.161 31.5867 137.438 31.704C137.726 31.8107 138.121 31.9333 138.622 32.072C139.251 32.2427 139.763 32.4133 140.158 32.584C140.553 32.744 140.889 32.9893 141.166 33.32C141.454 33.6507 141.603 34.0827 141.614 34.616C141.614 35.096 141.481 35.528 141.214 35.912C140.947 36.296 140.569 36.6 140.078 36.824C139.598 37.0373 139.043 37.144 138.414 37.144Z" fill="#828282"/>
</svg>
