<svg width="1030" height="175" viewBox="0 0 1030 175" fill="none" xmlns="http://www.w3.org/2000/svg">
<path d="M41.612 29.472C41.612 25.0347 42.572 21.088 44.492 17.632C46.412 14.1333 49.0787 11.424 52.492 9.504C55.948 7.54133 59.852 6.56 64.204 6.56C69.5373 6.56 74.1027 7.968 77.9 10.784C81.6973 13.6 84.236 17.44 85.516 22.304H73.484C72.588 20.4267 71.308 18.9973 69.644 18.016C68.0227 17.0347 66.1667 16.544 64.076 16.544C60.7053 16.544 57.9747 17.7173 55.884 20.064C53.7933 22.4107 52.748 25.5467 52.748 29.472C52.748 33.3973 53.7933 36.5333 55.884 38.88C57.9747 41.2267 60.7053 42.4 64.076 42.4C66.1667 42.4 68.0227 41.9093 69.644 40.928C71.308 39.9467 72.588 38.5173 73.484 36.64H85.516C84.236 41.504 81.6973 45.344 77.9 48.16C74.1027 50.9333 69.5373 52.32 64.204 52.32C59.852 52.32 55.948 51.36 52.492 49.44C49.0787 47.4773 46.412 44.768 44.492 41.312C42.572 37.856 41.612 33.9093 41.612 29.472ZM108.474 52.512C104.975 52.512 101.818 51.7653 99.002 50.272C96.2287 48.7787 94.0313 46.6453 92.41 43.872C90.8313 41.0987 90.042 37.856 90.042 34.144C90.042 30.4747 90.8527 27.2533 92.474 24.48C94.0953 21.664 96.314 19.5093 99.13 18.016C101.946 16.5227 105.103 15.776 108.602 15.776C112.101 15.776 115.258 16.5227 118.074 18.016C120.89 19.5093 123.109 21.664 124.73 24.48C126.351 27.2533 127.162 30.4747 127.162 34.144C127.162 37.8133 126.33 41.056 124.666 43.872C123.045 46.6453 120.805 48.7787 117.946 50.272C115.13 51.7653 111.973 52.512 108.474 52.512ZM108.474 43.04C110.565 43.04 112.335 42.272 113.786 40.736C115.279 39.2 116.026 37.0027 116.026 34.144C116.026 31.2853 115.301 29.088 113.85 27.552C112.442 26.016 110.693 25.248 108.602 25.248C106.469 25.248 104.698 26.016 103.29 27.552C101.882 29.0453 101.178 31.2427 101.178 34.144C101.178 37.0027 101.861 39.2 103.226 40.736C104.634 42.272 106.383 43.04 108.474 43.04ZM149.032 41.76L156.776 16.288H168.424L155.752 52H142.248L129.576 16.288H141.288L149.032 41.76ZM206.694 33.568C206.694 34.592 206.631 35.6587 206.503 36.768H181.735C181.905 38.9867 182.609 40.6933 183.847 41.888C185.127 43.04 186.684 43.616 188.519 43.616C191.249 43.616 193.148 42.464 194.215 40.16H205.863C205.265 42.5067 204.177 44.6187 202.599 46.496C201.063 48.3733 199.121 49.8453 196.775 50.912C194.428 51.9787 191.804 52.512 188.903 52.512C185.404 52.512 182.289 51.7653 179.559 50.272C176.828 48.7787 174.695 46.6453 173.159 43.872C171.623 41.0987 170.855 37.856 170.855 34.144C170.855 30.432 171.601 27.1893 173.095 24.416C174.631 21.6427 176.764 19.5093 179.495 18.016C182.225 16.5227 185.361 15.776 188.903 15.776C192.359 15.776 195.431 16.5013 198.119 17.952C200.807 19.4027 202.897 21.472 204.391 24.16C205.927 26.848 206.694 29.984 206.694 33.568ZM195.495 30.688C195.495 28.8107 194.855 27.3173 193.575 26.208C192.295 25.0987 190.695 24.544 188.775 24.544C186.94 24.544 185.383 25.0773 184.103 26.144C182.865 27.2107 182.097 28.7253 181.799 30.688H195.495ZM223.412 22.24C224.692 20.2773 226.292 18.7413 228.212 17.632C230.132 16.48 232.265 15.904 234.612 15.904V27.488H231.604C228.873 27.488 226.825 28.0853 225.46 29.28C224.095 30.432 223.412 32.48 223.412 35.424V52H212.468V16.288H223.412V22.24ZM273.31 42.72V52H267.742C263.774 52 260.68 51.04 258.462 49.12C256.243 47.1573 255.134 43.9787 255.134 39.584V25.376H250.782V16.288H255.134V7.584H266.078V16.288H273.246V25.376H266.078V39.712C266.078 40.7787 266.334 41.5467 266.846 42.016C267.358 42.4853 268.211 42.72 269.406 42.72H273.31ZM295.662 52.512C292.163 52.512 289.006 51.7653 286.19 50.272C283.416 48.7787 281.219 46.6453 279.598 43.872C278.019 41.0987 277.23 37.856 277.23 34.144C277.23 30.4747 278.04 27.2533 279.661 24.48C281.283 21.664 283.502 19.5093 286.318 18.016C289.134 16.5227 292.291 15.776 295.79 15.776C299.288 15.776 302.446 16.5227 305.262 18.016C308.078 19.5093 310.296 21.664 311.918 24.48C313.539 27.2533 314.35 30.4747 314.35 34.144C314.35 37.8133 313.518 41.056 311.854 43.872C310.232 46.6453 307.992 48.7787 305.134 50.272C302.318 51.7653 299.16 52.512 295.662 52.512ZM295.662 43.04C297.752 43.04 299.523 42.272 300.974 40.736C302.467 39.2 303.214 37.0027 303.214 34.144C303.214 31.2853 302.488 29.088 301.038 27.552C299.63 26.016 297.88 25.248 295.79 25.248C293.656 25.248 291.886 26.016 290.478 27.552C289.07 29.0453 288.366 31.2427 288.366 34.144C288.366 37.0027 289.048 39.2 290.414 40.736C291.822 42.272 293.571 43.04 295.662 43.04ZM325.66 12.576C323.74 12.576 322.161 12.0213 320.924 10.912C319.729 9.76 319.132 8.352 319.132 6.688C319.132 4.98133 319.729 3.57333 320.924 2.464C322.161 1.312 323.74 0.735996 325.66 0.735996C327.537 0.735996 329.073 1.312 330.268 2.464C331.505 3.57333 332.124 4.98133 332.124 6.688C332.124 8.352 331.505 9.76 330.268 10.912C329.073 12.0213 327.537 12.576 325.66 12.576ZM331.1 16.288V52H320.156V16.288H331.1ZM349.975 4.64V52H339.031V4.64H349.975ZM391.569 33.568C391.569 34.592 391.506 35.6587 391.378 36.768H366.61C366.78 38.9867 367.484 40.6933 368.722 41.888C370.002 43.04 371.559 43.616 373.394 43.616C376.124 43.616 378.023 42.464 379.09 40.16H390.738C390.14 42.5067 389.052 44.6187 387.474 46.496C385.938 48.3733 383.996 49.8453 381.65 50.912C379.303 51.9787 376.679 52.512 373.778 52.512C370.279 52.512 367.164 51.7653 364.434 50.272C361.703 48.7787 359.57 46.6453 358.034 43.872C356.498 41.0987 355.73 37.856 355.73 34.144C355.73 30.432 356.476 27.1893 357.97 24.416C359.506 21.6427 361.639 19.5093 364.37 18.016C367.1 16.5227 370.236 15.776 373.778 15.776C377.234 15.776 380.306 16.5013 382.994 17.952C385.682 19.4027 387.772 21.472 389.266 24.16C390.802 26.848 391.569 29.984 391.569 33.568ZM380.37 30.688C380.37 28.8107 379.73 27.3173 378.45 26.208C377.17 25.0987 375.57 24.544 373.65 24.544C371.815 24.544 370.258 25.0773 368.978 26.144C367.74 27.2107 366.972 28.7253 366.674 30.688H380.37ZM417.247 42.72V52H411.679C407.711 52 404.618 51.04 402.399 49.12C400.18 47.1573 399.071 43.9787 399.071 39.584V25.376H394.719V16.288H399.071V7.584H410.015V16.288H417.183V25.376H410.015V39.712C410.015 40.7787 410.271 41.5467 410.783 42.016C411.295 42.4853 412.148 42.72 413.343 42.72H417.247ZM451.434 52.512C448.319 52.512 445.546 51.9787 443.114 50.912C440.682 49.8453 438.762 48.3947 437.354 46.56C435.946 44.6827 435.156 42.592 434.986 40.288H445.802C445.93 41.5253 446.506 42.528 447.53 43.296C448.554 44.064 449.812 44.448 451.306 44.448C452.671 44.448 453.716 44.192 454.442 43.68C455.21 43.1253 455.594 42.4213 455.594 41.568C455.594 40.544 455.06 39.7973 453.994 39.328C452.927 38.816 451.199 38.2613 448.81 37.664C446.25 37.0667 444.116 36.448 442.41 35.808C440.703 35.1253 439.231 34.08 437.994 32.672C436.756 31.2213 436.138 29.28 436.138 26.848C436.138 24.8 436.692 22.944 437.802 21.28C438.954 19.5733 440.618 18.2293 442.794 17.248C445.012 16.2667 447.636 15.776 450.666 15.776C455.146 15.776 458.666 16.8853 461.226 19.104C463.828 21.3227 465.322 24.2667 465.706 27.936H455.594C455.423 26.6987 454.868 25.7173 453.93 24.992C453.034 24.2667 451.839 23.904 450.346 23.904C449.066 23.904 448.084 24.16 447.402 24.672C446.719 25.1413 446.378 25.8027 446.378 26.656C446.378 27.68 446.911 28.448 447.978 28.96C449.087 29.472 450.794 29.984 453.098 30.496C455.743 31.1787 457.898 31.8613 459.562 32.544C461.226 33.184 462.676 34.2507 463.914 35.744C465.194 37.1947 465.855 39.1573 465.898 41.632C465.898 43.7227 465.3 45.6 464.106 47.264C462.954 48.8853 461.268 50.1653 459.05 51.104C456.874 52.0427 454.335 52.512 451.434 52.512ZM488.849 52.512C485.35 52.512 482.193 51.7653 479.377 50.272C476.604 48.7787 474.406 46.6453 472.785 43.872C471.206 41.0987 470.417 37.856 470.417 34.144C470.417 30.4747 471.228 27.2533 472.849 24.48C474.47 21.664 476.689 19.5093 479.505 18.016C482.321 16.5227 485.478 15.776 488.977 15.776C492.476 15.776 495.633 16.5227 498.449 18.016C501.265 19.5093 503.484 21.664 505.105 24.48C506.726 27.2533 507.537 30.4747 507.537 34.144C507.537 37.8133 506.705 41.056 505.041 43.872C503.42 46.6453 501.18 48.7787 498.321 50.272C495.505 51.7653 492.348 52.512 488.849 52.512ZM488.849 43.04C490.94 43.04 492.71 42.272 494.161 40.736C495.654 39.2 496.401 37.0027 496.401 34.144C496.401 31.2853 495.676 29.088 494.225 27.552C492.817 26.016 491.068 25.248 488.977 25.248C486.844 25.248 485.073 26.016 483.665 27.552C482.257 29.0453 481.553 31.2427 481.553 34.144C481.553 37.0027 482.236 39.2 483.601 40.736C485.009 42.272 486.758 43.04 488.849 43.04ZM548.607 16.288V52H537.663V47.136C536.554 48.7147 535.039 49.9947 533.119 50.976C531.242 51.9147 529.151 52.384 526.847 52.384C524.116 52.384 521.706 51.7867 519.615 50.592C517.524 49.3547 515.903 47.584 514.751 45.28C513.599 42.976 513.023 40.2667 513.023 37.152V16.288H523.903V35.68C523.903 38.0693 524.522 39.9253 525.759 41.248C526.996 42.5707 528.66 43.232 530.751 43.232C532.884 43.232 534.57 42.5707 535.807 41.248C537.044 39.9253 537.663 38.0693 537.663 35.68V16.288H548.607ZM578.228 15.904C582.409 15.904 585.737 17.2693 588.212 20C590.729 22.688 591.988 26.4 591.988 31.136V52H581.108V32.608C581.108 30.2187 580.489 28.3627 579.252 27.04C578.015 25.7173 576.351 25.056 574.26 25.056C572.169 25.056 570.505 25.7173 569.268 27.04C568.031 28.3627 567.412 30.2187 567.412 32.608V52H556.468V16.288H567.412V21.024C568.521 19.4453 570.015 18.208 571.892 17.312C573.769 16.3733 575.881 15.904 578.228 15.904ZM597.417 34.08C597.417 30.4107 598.1 27.1893 599.465 24.416C600.873 21.6427 602.772 19.5093 605.161 18.016C607.55 16.5227 610.217 15.776 613.161 15.776C615.508 15.776 617.641 16.2667 619.561 17.248C621.524 18.2293 623.06 19.552 624.169 21.216V4.64H635.113V52H624.169V46.88C623.145 48.5867 621.673 49.952 619.753 50.976C617.876 52 615.678 52.512 613.161 52.512C610.217 52.512 607.55 51.7653 605.161 50.272C602.772 48.736 600.873 46.5813 599.465 43.808C598.1 40.992 597.417 37.7493 597.417 34.08ZM624.169 34.144C624.169 31.4133 623.401 29.2587 621.865 27.68C620.372 26.1013 618.537 25.312 616.361 25.312C614.185 25.312 612.329 26.1013 610.793 27.68C609.3 29.216 608.553 31.3493 608.553 34.08C608.553 36.8107 609.3 38.9867 610.793 40.608C612.329 42.1867 614.185 42.976 616.361 42.976C618.537 42.976 620.372 42.1867 621.865 40.608C623.401 39.0293 624.169 36.8747 624.169 34.144ZM657.559 52.512C654.444 52.512 651.671 51.9787 649.239 50.912C646.807 49.8453 644.887 48.3947 643.479 46.56C642.071 44.6827 641.281 42.592 641.111 40.288H651.927C652.055 41.5253 652.631 42.528 653.655 43.296C654.679 44.064 655.937 44.448 657.431 44.448C658.796 44.448 659.841 44.192 660.567 43.68C661.335 43.1253 661.719 42.4213 661.719 41.568C661.719 40.544 661.185 39.7973 660.119 39.328C659.052 38.816 657.324 38.2613 654.935 37.664C652.375 37.0667 650.241 36.448 648.535 35.808C646.828 35.1253 645.356 34.08 644.119 32.672C642.881 31.2213 642.263 29.28 642.263 26.848C642.263 24.8 642.817 22.944 643.927 21.28C645.079 19.5733 646.743 18.2293 648.919 17.248C651.137 16.2667 653.761 15.776 656.791 15.776C661.271 15.776 664.791 16.8853 667.351 19.104C669.953 21.3227 671.447 24.2667 671.831 27.936H661.719C661.548 26.6987 660.993 25.7173 660.055 24.992C659.159 24.2667 657.964 23.904 656.471 23.904C655.191 23.904 654.209 24.16 653.527 24.672C652.844 25.1413 652.503 25.8027 652.503 26.656C652.503 27.68 653.036 28.448 654.103 28.96C655.212 29.472 656.919 29.984 659.223 30.496C661.868 31.1787 664.023 31.8613 665.687 32.544C667.351 33.184 668.801 34.2507 670.039 35.744C671.319 37.1947 671.98 39.1573 672.023 41.632C672.023 43.7227 671.425 45.6 670.231 47.264C669.079 48.8853 667.393 50.1653 665.175 51.104C662.999 52.0427 660.46 52.512 657.559 52.512ZM690.105 34.08C690.105 30.4107 690.787 27.1893 692.153 24.416C693.561 21.6427 695.459 19.5093 697.849 18.016C700.238 16.5227 702.905 15.776 705.849 15.776C708.366 15.776 710.563 16.288 712.441 17.312C714.361 18.336 715.833 19.68 716.857 21.344V16.288H727.801V52H716.857V46.944C715.79 48.608 714.297 49.952 712.377 50.976C710.499 52 708.302 52.512 705.785 52.512C702.883 52.512 700.238 51.7653 697.849 50.272C695.459 48.736 693.561 46.5813 692.153 43.808C690.787 40.992 690.105 37.7493 690.105 34.08ZM716.857 34.144C716.857 31.4133 716.089 29.2587 714.553 27.68C713.059 26.1013 711.225 25.312 709.049 25.312C706.873 25.312 705.017 26.1013 703.481 27.68C701.987 29.216 701.241 31.3493 701.241 34.08C701.241 36.8107 701.987 38.9867 703.481 40.608C705.017 42.1867 706.873 42.976 709.049 42.976C711.225 42.976 713.059 42.1867 714.553 40.608C716.089 39.0293 716.857 36.8747 716.857 34.144ZM757.478 15.904C761.659 15.904 764.987 17.2693 767.462 20C769.979 22.688 771.238 26.4 771.238 31.136V52H760.358V32.608C760.358 30.2187 759.739 28.3627 758.502 27.04C757.265 25.7173 755.601 25.056 753.51 25.056C751.419 25.056 749.755 25.7173 748.518 27.04C747.281 28.3627 746.662 30.2187 746.662 32.608V52H735.718V16.288H746.662V21.024C747.771 19.4453 749.265 18.208 751.142 17.312C753.019 16.3733 755.131 15.904 757.478 15.904ZM776.667 34.08C776.667 30.4107 777.35 27.1893 778.715 24.416C780.123 21.6427 782.022 19.5093 784.411 18.016C786.8 16.5227 789.467 15.776 792.411 15.776C794.758 15.776 796.891 16.2667 798.811 17.248C800.774 18.2293 802.31 19.552 803.419 21.216V4.64H814.363V52H803.419V46.88C802.395 48.5867 800.923 49.952 799.003 50.976C797.126 52 794.928 52.512 792.411 52.512C789.467 52.512 786.8 51.7653 784.411 50.272C782.022 48.736 780.123 46.5813 778.715 43.808C777.35 40.992 776.667 37.7493 776.667 34.08ZM803.419 34.144C803.419 31.4133 802.651 29.2587 801.115 27.68C799.622 26.1013 797.787 25.312 795.611 25.312C793.435 25.312 791.579 26.1013 790.043 27.68C788.55 29.216 787.803 31.3493 787.803 34.08C787.803 36.8107 788.55 38.9867 790.043 40.608C791.579 42.1867 793.435 42.976 795.611 42.976C797.787 42.976 799.622 42.1867 801.115 40.608C802.651 39.0293 803.419 36.8747 803.419 34.144ZM850.371 52.512C847.256 52.512 844.483 51.9787 842.051 50.912C839.619 49.8453 837.699 48.3947 836.291 46.56C834.883 44.6827 834.094 42.592 833.923 40.288H844.739C844.867 41.5253 845.443 42.528 846.467 43.296C847.491 44.064 848.75 44.448 850.243 44.448C851.608 44.448 852.654 44.192 853.379 43.68C854.147 43.1253 854.531 42.4213 854.531 41.568C854.531 40.544 853.998 39.7973 852.931 39.328C851.864 38.816 850.136 38.2613 847.747 37.664C845.187 37.0667 843.054 36.448 841.347 35.808C839.64 35.1253 838.168 34.08 836.931 32.672C835.694 31.2213 835.075 29.28 835.075 26.848C835.075 24.8 835.63 22.944 836.739 21.28C837.891 19.5733 839.555 18.2293 841.731 17.248C843.95 16.2667 846.574 15.776 849.603 15.776C854.083 15.776 857.603 16.8853 860.163 19.104C862.766 21.3227 864.259 24.2667 864.643 27.936H854.531C854.36 26.6987 853.806 25.7173 852.867 24.992C851.971 24.2667 850.776 23.904 849.283 23.904C848.003 23.904 847.022 24.16 846.339 24.672C845.656 25.1413 845.315 25.8027 845.315 26.656C845.315 27.68 845.848 28.448 846.915 28.96C848.024 29.472 849.731 29.984 852.035 30.496C854.68 31.1787 856.835 31.8613 858.499 32.544C860.163 33.184 861.614 34.2507 862.851 35.744C864.131 37.1947 864.792 39.1573 864.835 41.632C864.835 43.7227 864.238 45.6 863.043 47.264C861.891 48.8853 860.206 50.1653 857.987 51.104C855.811 52.0427 853.272 52.512 850.371 52.512ZM869.355 34.08C869.355 30.4107 870.037 27.1893 871.403 24.416C872.811 21.6427 874.709 19.5093 877.099 18.016C879.488 16.5227 882.155 15.776 885.099 15.776C887.616 15.776 889.813 16.288 891.691 17.312C893.611 18.336 895.083 19.68 896.107 21.344V16.288H907.051V52H896.107V46.944C895.04 48.608 893.547 49.952 891.627 50.976C889.749 52 887.552 52.512 885.035 52.512C882.133 52.512 879.488 51.7653 877.099 50.272C874.709 48.736 872.811 46.5813 871.403 43.808C870.037 40.992 869.355 37.7493 869.355 34.08ZM896.107 34.144C896.107 31.4133 895.339 29.2587 893.803 27.68C892.309 26.1013 890.475 25.312 888.299 25.312C886.123 25.312 884.267 26.1013 882.731 27.68C881.237 29.216 880.491 31.3493 880.491 34.08C880.491 36.8107 881.237 38.9867 882.731 40.608C884.267 42.1867 886.123 42.976 888.299 42.976C890.475 42.976 892.309 42.1867 893.803 40.608C895.339 39.0293 896.107 36.8747 896.107 34.144ZM931.032 41.76L938.776 16.288H950.424L937.752 52H924.248L911.576 16.288H923.288L931.032 41.76ZM988.694 33.568C988.694 34.592 988.631 35.6587 988.503 36.768H963.735C963.905 38.9867 964.609 40.6933 965.847 41.888C967.127 43.04 968.684 43.616 970.519 43.616C973.249 43.616 975.148 42.464 976.215 40.16H987.863C987.265 42.5067 986.177 44.6187 984.599 46.496C983.063 48.3733 981.121 49.8453 978.775 50.912C976.428 51.9787 973.804 52.512 970.903 52.512C967.404 52.512 964.289 51.7653 961.559 50.272C958.828 48.7787 956.695 46.6453 955.159 43.872C953.623 41.0987 952.855 37.856 952.855 34.144C952.855 30.432 953.601 27.1893 955.095 24.416C956.631 21.6427 958.764 19.5093 961.495 18.016C964.225 16.5227 967.361 15.776 970.903 15.776C974.359 15.776 977.431 16.5013 980.119 17.952C982.807 19.4027 984.897 21.472 986.391 24.16C987.927 26.848 988.694 29.984 988.694 33.568ZM977.495 30.688C977.495 28.8107 976.855 27.3173 975.575 26.208C974.295 25.0987 972.695 24.544 970.775 24.544C968.94 24.544 967.383 25.0773 966.103 26.144C964.865 27.2107 964.097 28.7253 963.799 30.688H977.495ZM474.388 93.288L464.724 129H452.628L446.996 105.832L441.172 129H429.14L419.412 93.288H430.356L435.412 118.824L441.428 93.288H453.012L459.092 118.696L464.084 93.288H474.388ZM476.386 111.08C476.386 107.411 477.068 104.189 478.434 101.416C479.842 98.6427 481.74 96.5093 484.13 95.016C486.519 93.5227 489.186 92.776 492.13 92.776C494.647 92.776 496.844 93.288 498.722 94.312C500.642 95.336 502.114 96.68 503.138 98.344V93.288H514.082V129H503.138V123.944C502.071 125.608 500.578 126.952 498.658 127.976C496.78 129 494.583 129.512 492.066 129.512C489.164 129.512 486.519 128.765 484.13 127.272C481.74 125.736 479.842 123.581 478.434 120.808C477.068 117.992 476.386 114.749 476.386 111.08ZM503.138 111.144C503.138 108.413 502.37 106.259 500.834 104.68C499.34 103.101 497.506 102.312 495.33 102.312C493.154 102.312 491.298 103.101 489.762 104.68C488.268 106.216 487.522 108.349 487.522 111.08C487.522 113.811 488.268 115.987 489.762 117.608C491.298 119.187 493.154 119.976 495.33 119.976C497.506 119.976 499.34 119.187 500.834 117.608C502.37 116.029 503.138 113.875 503.138 111.144ZM541.903 119.72V129H536.335C532.367 129 529.274 128.04 527.055 126.12C524.837 124.157 523.727 120.979 523.727 116.584V102.376H519.375V93.288H523.727V84.584H534.671V93.288H541.839V102.376H534.671V116.712C534.671 117.779 534.927 118.547 535.439 119.016C535.951 119.485 536.805 119.72 537.999 119.72H541.903ZM581.663 110.568C581.663 111.592 581.599 112.659 581.471 113.768H556.703C556.874 115.987 557.578 117.693 558.815 118.888C560.095 120.04 561.653 120.616 563.487 120.616C566.218 120.616 568.117 119.464 569.183 117.16H580.831C580.234 119.507 579.146 121.619 577.567 123.496C576.031 125.373 574.09 126.845 571.743 127.912C569.397 128.979 566.773 129.512 563.871 129.512C560.373 129.512 557.258 128.765 554.527 127.272C551.797 125.779 549.663 123.645 548.127 120.872C546.591 118.099 545.823 114.856 545.823 111.144C545.823 107.432 546.57 104.189 548.063 101.416C549.599 98.6427 551.733 96.5093 554.463 95.016C557.194 93.5227 560.33 92.776 563.871 92.776C567.327 92.776 570.399 93.5013 573.087 94.952C575.775 96.4027 577.866 98.472 579.359 101.16C580.895 103.848 581.663 106.984 581.663 110.568ZM570.463 107.688C570.463 105.811 569.823 104.317 568.543 103.208C567.263 102.099 565.663 101.544 563.743 101.544C561.909 101.544 560.351 102.077 559.071 103.144C557.834 104.211 557.066 105.725 556.767 107.688H570.463ZM598.381 99.24C599.661 97.2773 601.261 95.7413 603.181 94.632C605.101 93.48 607.234 92.904 609.581 92.904V104.488H606.573C603.842 104.488 601.794 105.085 600.429 106.28C599.063 107.432 598.381 109.48 598.381 112.424V129H587.437V93.288H598.381V99.24Z" fill="white"/>
</svg>
