<svg width="244" height="101" viewBox="0 0 244 101" fill="none" xmlns="http://www.w3.org/2000/svg">
<g clip-path="url(#clip0_2884_4676)">
<path d="M72.5605 50.3776C72.5605 65.6397 65.4025 78.012 56.5726 78.012C47.7427 78.012 40.5847 65.6397 40.5847 50.3776C40.5847 35.1156 47.7427 22.7432 56.5726 22.7432C65.4025 22.7432 72.5605 35.1156 72.5605 50.3776Z" fill="white"/>
<path d="M29.0244 50.4999C29.0244 42.8083 32.852 36.0084 38.7112 31.8914C39.6293 31.2463 40.8308 31.9355 40.8308 33.0533L40.8308 67.9496C40.8308 69.0673 39.6292 69.7536 38.7112 69.1085C32.852 64.9915 29.0244 58.1915 29.0244 50.4999Z" fill="white"/>
<path d="M22.3831 50.4999C22.3831 47.5265 23.6903 44.8506 25.7751 42.9882C26.6066 42.2454 27.7944 42.9223 27.7944 44.0337L27.7944 56.9692C27.7944 58.0806 26.6066 58.7544 25.7751 58.0116C23.6903 56.1492 22.3831 53.4733 22.3831 50.4999Z" fill="white"/>
<path d="M18.9397 50.4999C18.9397 49.5788 19.1878 48.7172 19.6189 47.982C20.1894 47.0091 21.3994 47.6201 21.3994 48.7463L21.3994 52.2549C21.3994 53.381 20.1894 53.9907 19.6189 53.0179C19.1878 52.2826 18.9397 51.421 18.9397 50.4999Z" fill="white"/>
<path d="M84.613 50.4999C84.613 40.2823 79.4064 31.2803 71.5004 25.9996C70.5667 25.376 69.363 26.0674 69.363 27.1857L69.363 73.8254C69.363 74.9437 70.5667 75.6238 71.5004 75.0002C79.4064 69.7196 84.613 60.7175 84.613 50.4999Z" fill="white"/>
</g>
<path d="M129.305 32.0295L129.305 51.6005L124.51 51.6005L124.51 39.8635L120.108 51.6005L116.238 51.6005L111.808 39.8356L111.808 51.6005L107.013 51.6005L107.013 32.0295L112.677 32.0295L118.201 45.5786L123.669 32.0295L129.305 32.0295Z" fill="white"/>
<path d="M148.203 36.0441L148.203 51.6005L143.408 51.6005L143.408 49.4817C142.922 50.1694 142.259 50.727 141.417 51.1544C140.595 51.5633 139.679 51.7678 138.669 51.7678C137.473 51.7678 136.417 51.5076 135.501 50.9872C134.585 50.4482 133.875 49.6769 133.37 48.6732C132.865 47.6696 132.613 46.4894 132.613 45.1326L132.613 36.0441L137.38 36.0441L137.38 44.4914C137.38 45.5322 137.651 46.3407 138.193 46.9168C138.735 47.493 139.464 47.7811 140.38 47.7811C141.315 47.7811 142.053 47.493 142.595 46.9168C143.137 46.3407 143.408 45.5322 143.408 44.4914L143.408 36.0441L148.203 36.0441Z" fill="white"/>
<path d="M160.368 47.5581L160.368 51.6005L157.928 51.6005C156.19 51.6005 154.835 51.1823 153.862 50.3459C152.89 49.491 152.404 48.1063 152.404 46.192L152.404 40.0029L150.498 40.0029L150.498 36.0441L152.404 36.0441L152.404 32.2525L157.199 32.2525L157.199 36.0441L160.34 36.0441L160.34 40.0029L157.199 40.0029L157.199 46.2477C157.199 46.7124 157.311 47.0469 157.536 47.2514C157.76 47.4558 158.134 47.5581 158.657 47.5581L160.368 47.5581Z" fill="white"/>
<path d="M177.788 43.5714C177.788 44.0174 177.76 44.4821 177.704 44.9653L166.852 44.9653C166.927 45.9318 167.235 46.6752 167.777 47.1956C168.338 47.6974 169.021 47.9484 169.824 47.9484C171.021 47.9484 171.853 47.4465 172.32 46.4429L177.423 46.4429C177.162 47.4651 176.685 48.3851 175.993 49.2029C175.32 50.0207 174.47 50.6619 173.442 51.1266C172.413 51.5912 171.264 51.8235 169.993 51.8235C168.46 51.8235 167.095 51.4983 165.899 50.8478C164.702 50.1973 163.768 49.268 163.095 48.0599C162.422 46.8518 162.085 45.4393 162.085 43.8223C162.085 42.2053 162.412 40.7928 163.067 39.5847C163.74 38.3766 164.674 37.4473 165.871 36.7968C167.067 36.1463 168.441 35.821 169.993 35.821C171.507 35.821 172.853 36.137 174.03 36.7689C175.208 37.4008 176.124 38.3022 176.778 39.4732C177.451 40.6441 177.788 42.0101 177.788 43.5714ZM172.881 42.3168C172.881 41.499 172.6 40.8485 172.04 40.3653C171.479 39.8821 170.778 39.6404 169.937 39.6404C169.133 39.6404 168.45 39.8728 167.89 40.3374C167.348 40.8021 167.011 41.4619 166.88 42.3168L172.881 42.3168Z" fill="white"/>
<path d="M188.671 34.4271C187.83 34.4271 187.138 34.1855 186.596 33.7022C186.073 33.2004 185.811 32.5871 185.811 31.8622C185.811 31.1188 186.073 30.5054 186.596 30.0222C187.138 29.5204 187.83 29.2695 188.671 29.2695C189.494 29.2695 190.167 29.5204 190.69 30.0222C191.232 30.5054 191.503 31.1188 191.503 31.8622C191.503 32.5871 191.232 33.2004 190.69 33.7022C190.167 34.1855 189.494 34.4271 188.671 34.4271ZM191.054 36.0441L191.054 51.6005L186.26 51.6005L186.26 36.0441L191.054 36.0441Z" fill="white"/>
<path d="M203.25 47.5581L203.25 51.6005L200.81 51.6005C199.072 51.6005 197.717 51.1823 196.744 50.3459C195.772 49.491 195.286 48.1063 195.286 46.192L195.286 40.0029L193.38 40.0029L193.38 36.0441L195.286 36.0441L195.286 32.2525L200.081 32.2525L200.081 36.0441L203.222 36.0441L203.222 40.0029L200.081 40.0029L200.081 46.2477C200.081 46.7124 200.193 47.0469 200.418 47.2514C200.642 47.4558 201.016 47.5581 201.539 47.5581L203.25 47.5581Z" fill="white"/>
<path d="M109.54 70.5719C108.879 70.5719 108.286 70.4623 107.762 70.2432C107.237 70.0136 106.822 69.7006 106.518 69.3041C106.214 68.8972 106.046 68.4328 106.014 67.9111L107.494 67.9111C107.536 68.3389 107.735 68.6885 108.092 68.9598C108.459 69.2311 108.937 69.3667 109.525 69.3667C110.07 69.3667 110.501 69.2467 110.815 69.0067C111.13 68.7667 111.288 68.4642 111.288 68.099C111.288 67.7233 111.12 67.4468 110.784 67.2694C110.448 67.0816 109.929 66.899 109.226 66.7216C108.585 66.5547 108.061 66.3877 107.651 66.2208C107.253 66.0434 106.906 65.7878 106.612 65.4539C106.329 65.1095 106.187 64.6609 106.187 64.1079C106.187 63.6696 106.319 63.2679 106.581 62.9027C106.843 62.5375 107.216 62.2506 107.699 62.0419C108.181 61.8228 108.732 61.7132 109.351 61.7132C110.306 61.7132 111.078 61.9532 111.666 62.4332C112.253 62.9131 112.568 63.5705 112.61 64.4052L111.178 64.4052C111.146 63.9566 110.962 63.5966 110.627 63.3253C110.301 63.054 109.86 62.9184 109.304 62.9184C108.79 62.9184 108.381 63.0279 108.076 63.247C107.772 63.4662 107.62 63.7531 107.62 64.1079C107.62 64.3896 107.709 64.6244 107.887 64.8122C108.076 64.9896 108.307 65.1356 108.58 65.2504C108.863 65.3548 109.252 65.4747 109.745 65.6104C110.364 65.7773 110.868 65.9443 111.256 66.1112C111.645 66.2677 111.975 66.5077 112.248 66.8312C112.531 67.1547 112.678 67.5772 112.689 68.099C112.689 68.5685 112.558 68.9911 112.295 69.3667C112.033 69.7423 111.66 70.0397 111.178 70.2588C110.705 70.4675 110.16 70.5719 109.54 70.5719Z" fill="white"/>
<path d="M118.473 70.5719C117.665 70.5719 116.931 70.3893 116.269 70.0241C115.619 69.6589 115.105 69.1424 114.727 68.4746C114.359 67.7964 114.176 67.0138 114.176 66.1269C114.176 65.2504 114.365 64.4783 114.742 63.8105C115.131 63.1323 115.655 62.6158 116.317 62.261C116.978 61.8958 117.718 61.7132 118.536 61.7132C119.355 61.7132 120.095 61.8958 120.756 62.261C121.417 62.6158 121.937 63.127 122.314 63.7948C122.703 64.4626 122.897 65.24 122.897 66.1269C122.897 67.0138 122.697 67.7964 122.299 68.4746C121.91 69.1424 121.38 69.6589 120.709 70.0241C120.037 70.3893 119.292 70.5719 118.473 70.5719ZM118.473 69.3198C118.988 69.3198 119.47 69.1998 119.922 68.9598C120.373 68.7198 120.735 68.3598 121.008 67.8798C121.291 67.3999 121.433 66.8155 121.433 66.1269C121.433 65.4382 121.296 64.8539 121.023 64.3739C120.751 63.894 120.394 63.5392 119.953 63.3096C119.512 63.0697 119.035 62.9497 118.521 62.9497C117.996 62.9497 117.513 63.0697 117.072 63.3096C116.642 63.5392 116.296 63.894 116.033 64.3739C115.771 64.8539 115.64 65.4382 115.64 66.1269C115.64 66.826 115.766 67.4155 116.018 67.8955C116.28 68.3755 116.626 68.7354 117.057 68.9754C117.487 69.205 117.959 69.3198 118.473 69.3198Z" fill="white"/>
<path d="M132.431 61.8541L132.431 70.431L130.998 70.431L130.998 69.1632C130.725 69.6015 130.342 69.9458 129.849 70.1962C129.366 70.4362 128.831 70.5562 128.243 70.5562C127.572 70.5562 126.968 70.4206 126.433 70.1493C125.898 69.8676 125.473 69.4502 125.158 68.8972C124.854 68.3442 124.702 67.6712 124.702 66.8782L124.702 61.8541L126.118 61.8541L126.118 66.6903C126.118 67.5355 126.333 68.1876 126.764 68.6468C127.194 69.0954 127.782 69.3198 128.527 69.3198C129.293 69.3198 129.896 69.085 130.337 68.6154C130.778 68.1459 130.998 67.4625 130.998 66.5651L130.998 61.8541L132.431 61.8541Z" fill="white"/>
<path d="M139.053 61.6976C140.102 61.6976 140.952 62.0158 141.603 62.6523C142.254 63.2783 142.579 64.1861 142.579 65.3756L142.579 70.431L141.162 70.431L141.162 65.5791C141.162 64.7235 140.947 64.0713 140.517 63.6227C140.086 63.1636 139.499 62.934 138.754 62.934C137.998 62.934 137.395 63.1688 136.943 63.6383C136.502 64.1079 136.282 64.7913 136.282 65.6886L136.282 70.431L134.85 70.431L134.85 61.8541L136.282 61.8541L136.282 63.0749C136.565 62.6366 136.948 62.2975 137.431 62.0575C137.924 61.8176 138.465 61.6976 139.053 61.6976Z" fill="white"/>
<path d="M144.384 66.1112C144.384 65.2348 144.562 64.4678 144.919 63.8105C145.276 63.1427 145.764 62.6262 146.383 62.261C147.013 61.8958 147.716 61.7132 148.492 61.7132C149.164 61.7132 149.788 61.8697 150.366 62.1828C150.943 62.4853 151.384 62.8871 151.688 63.3879L151.688 58.849L153.136 58.849L153.136 70.431L151.688 70.431L151.688 68.8189C151.405 69.3302 150.985 69.7528 150.429 70.0867C149.872 70.4101 149.222 70.5719 148.477 70.5719C147.71 70.5719 147.013 70.384 146.383 70.0084C145.764 69.6328 145.276 69.1059 144.919 68.4276C144.562 67.7494 144.384 66.9773 144.384 66.1112ZM151.688 66.1269C151.688 65.48 151.557 64.9165 151.294 64.4365C151.032 63.9566 150.675 63.5914 150.224 63.341C149.783 63.0801 149.295 62.9497 148.76 62.9497C148.225 62.9497 147.737 63.0749 147.296 63.3253C146.855 63.5757 146.504 63.9409 146.241 64.4209C145.979 64.9009 145.848 65.4643 145.848 66.1112C145.848 66.7686 145.979 67.3425 146.241 67.8329C146.504 68.3129 146.855 68.6833 147.296 68.9441C147.737 69.1945 148.225 69.3198 148.76 69.3198C149.295 69.3198 149.783 69.1945 150.224 68.9441C150.675 68.6833 151.032 68.3129 151.294 67.8329C151.557 67.3425 151.688 66.7738 151.688 66.1269Z" fill="white"/>
<path d="M164.036 61.6976C164.686 61.6976 165.274 61.8384 165.799 62.1201C166.323 62.3914 166.733 62.8036 167.027 63.3566C167.331 63.9096 167.483 64.5826 167.483 65.3756L167.483 70.431L166.066 70.431L166.066 65.5791C166.066 64.7235 165.851 64.0713 165.421 63.6227C164.991 63.1636 164.403 62.934 163.658 62.934C162.902 62.934 162.299 63.1688 161.847 63.6383C161.407 64.1079 161.186 64.7913 161.186 65.6886L161.186 70.431L159.754 70.431L159.754 58.849L161.186 58.849L161.186 63.0749C161.47 62.6366 161.858 62.2975 162.351 62.0575C162.855 61.8176 163.416 61.6976 164.036 61.6976Z" fill="white"/>
<path d="M177.694 65.8139C177.694 66.0851 177.678 66.3721 177.647 66.6747L170.752 66.6747C170.804 67.5199 171.093 68.1824 171.618 68.6624C172.153 69.1319 172.798 69.3667 173.554 69.3667C174.173 69.3667 174.687 69.2258 175.097 68.9441C175.516 68.652 175.81 68.2659 175.978 67.7859L177.521 67.7859C177.29 68.6102 176.828 69.2832 176.136 69.8049C175.443 70.3162 174.582 70.5719 173.554 70.5719C172.735 70.5719 172.001 70.3893 171.35 70.0241C170.71 69.6589 170.206 69.1424 169.839 68.4746C169.472 67.7964 169.288 67.0138 169.288 66.1269C169.288 65.24 169.466 64.4626 169.823 63.7948C170.18 63.127 170.678 62.6158 171.319 62.261C171.969 61.8958 172.714 61.7132 173.554 61.7132C174.373 61.7132 175.097 61.8906 175.726 62.2454C176.356 62.6001 176.839 63.0905 177.175 63.7166C177.521 64.3322 177.694 65.0313 177.694 65.8139ZM176.214 65.5165C176.214 64.9739 176.094 64.5096 175.852 64.1235C175.611 63.727 175.28 63.4296 174.861 63.2314C174.451 63.0227 173.995 62.9184 173.491 62.9184C172.767 62.9184 172.148 63.1479 171.633 63.607C171.13 64.0661 170.841 64.7026 170.768 65.5165L176.214 65.5165Z" fill="white"/>
<path d="M181.017 58.849L181.017 70.431L179.585 70.431L179.585 58.849L181.017 58.849Z" fill="white"/>
<path d="M184.891 63.4349C185.175 62.9445 185.595 62.5375 186.151 62.2141C186.718 61.8802 187.373 61.7132 188.119 61.7132C188.885 61.7132 189.577 61.8958 190.197 62.261C190.826 62.6262 191.319 63.1427 191.676 63.8105C192.033 64.4678 192.211 65.2348 192.211 66.1112C192.211 66.9773 192.033 67.7494 191.676 68.4276C191.319 69.1059 190.826 69.6328 190.197 70.0084C189.577 70.384 188.885 70.5719 188.119 70.5719C187.384 70.5719 186.733 70.4101 186.167 70.0867C185.61 69.7528 185.185 69.3406 184.891 68.8502L184.891 74.5003L183.459 74.5003L183.459 61.8541L184.891 61.8541L184.891 63.4349ZM190.747 66.1112C190.747 65.4643 190.616 64.9009 190.354 64.4209C190.092 63.9409 189.735 63.5757 189.283 63.3253C188.843 63.0749 188.355 62.9497 187.819 62.9497C187.295 62.9497 186.807 63.0801 186.355 63.341C185.915 63.5914 185.558 63.9618 185.285 64.4522C185.023 64.9322 184.891 65.4904 184.891 66.1269C184.891 66.7738 185.023 67.3425 185.285 67.8329C185.558 68.3129 185.915 68.6833 186.355 68.9441C186.807 69.1945 187.295 69.3198 187.819 69.3198C188.355 69.3198 188.843 69.1945 189.283 68.9441C189.735 68.6833 190.092 68.3129 190.354 67.8329C190.616 67.3425 190.747 66.7686 190.747 66.1112Z" fill="white"/>
<path d="M201.968 65.8139C201.968 66.0851 201.952 66.3721 201.921 66.6747L195.026 66.6747C195.078 67.5199 195.367 68.1824 195.892 68.6624C196.427 69.1319 197.072 69.3667 197.828 69.3667C198.447 69.3667 198.961 69.2258 199.371 68.9441C199.79 68.652 200.084 68.2659 200.252 67.7859L201.795 67.7859C201.564 68.6102 201.102 69.2832 200.41 69.8049C199.717 70.3162 198.856 70.5719 197.828 70.5719C197.009 70.5719 196.275 70.3893 195.624 70.0241C194.984 69.6589 194.48 69.1424 194.113 68.4746C193.745 67.7964 193.562 67.0138 193.562 66.1269C193.562 65.24 193.74 64.4626 194.097 63.7948C194.454 63.127 194.952 62.6158 195.593 62.261C196.243 61.8958 196.988 61.7132 197.828 61.7132C198.646 61.7132 199.371 61.8906 200 62.2454C200.63 62.6001 201.113 63.0905 201.449 63.7166C201.795 64.3322 201.968 65.0313 201.968 65.8139ZM200.488 65.5165C200.488 64.9739 200.368 64.5096 200.126 64.1235C199.885 63.727 199.554 63.4296 199.134 63.2314C198.725 63.0227 198.269 62.9184 197.765 62.9184C197.041 62.9184 196.422 63.1479 195.907 63.607C195.404 64.0661 195.115 64.7026 195.042 65.5165L200.488 65.5165Z" fill="white"/>
<path d="M205.291 63.247C205.543 62.7566 205.9 62.3758 206.362 62.1045C206.834 61.8332 207.406 61.6976 208.078 61.6976L208.078 63.1688L207.7 63.1688C206.094 63.1688 205.291 64.0348 205.291 65.7669L205.291 70.431L203.859 70.431L203.859 61.8541L205.291 61.8541L205.291 63.247Z" fill="white"/>
<defs>
<clipPath id="clip0_2884_4676">
<rect width="65.6732" height="55.2688" fill="white" transform="translate(18.9397 22.7432)"/>
<rect id="mob" width="150" height="40" fill="white"/>
</clipPath>
</defs>
</svg>
