<svg width="94" height="24" viewBox="0 0 94 24" fill="none" xmlns="http://www.w3.org/2000/svg">
<path d="M15.3015 7.064C15.3015 8.984 14.6722 10.5307 13.4135 11.704C12.1548 12.8773 10.2668 13.464 7.7495 13.464H3.2375V23H0.9975V0.631998H7.7495C10.2455 0.631998 12.1228 1.21866 13.3815 2.392C14.6615 3.56533 15.3015 5.12267 15.3015 7.064ZM7.7495 11.544C11.2482 11.544 12.9975 10.0507 12.9975 7.064C12.9975 5.57067 12.5815 4.44 11.7495 3.672C10.9175 2.904 9.58417 2.52 7.7495 2.52H3.2375V11.544H7.7495ZM18.036 14.232C18.036 12.44 18.388 10.872 19.092 9.528C19.8173 8.16267 20.8093 7.11733 22.068 6.392C23.348 5.64533 24.788 5.272 26.388 5.272C28.052 5.272 29.4813 5.656 30.676 6.424C31.892 7.192 32.7667 8.17333 33.3 9.368V5.528H35.54V23H33.3V19.128C32.7453 20.3227 31.86 21.3147 30.644 22.104C29.4493 22.872 28.02 23.256 26.356 23.256C24.7773 23.256 23.348 22.8827 22.068 22.136C20.8093 21.3893 19.8173 20.3333 19.092 18.968C18.388 17.6027 18.036 16.024 18.036 14.232ZM33.3 14.264C33.3 12.856 33.012 11.6187 32.436 10.552C31.86 9.48533 31.0707 8.664 30.068 8.088C29.0867 7.512 27.9987 7.224 26.804 7.224C25.5667 7.224 24.4573 7.50133 23.476 8.056C22.4947 8.61067 21.716 9.42133 21.14 10.488C20.5853 11.5333 20.308 12.7813 20.308 14.232C20.308 15.6613 20.5853 16.92 21.14 18.008C21.716 19.0747 22.4947 19.896 23.476 20.472C24.4573 21.0267 25.5667 21.304 26.804 21.304C27.9987 21.304 29.0867 21.016 30.068 20.44C31.0707 19.864 31.86 19.0427 32.436 17.976C33.012 16.9093 33.3 15.672 33.3 14.264ZM55.7898 5.528V23H53.5498V19.928C53.0378 21.016 52.2484 21.848 51.1818 22.424C50.1151 23 48.9204 23.288 47.5978 23.288C45.5071 23.288 43.8004 22.648 42.4778 21.368C41.1551 20.0667 40.4938 18.1893 40.4938 15.736V5.528H42.7018V15.48C42.7018 17.3787 43.1711 18.8293 44.1098 19.832C45.0698 20.8347 46.3711 21.336 48.0138 21.336C49.6991 21.336 51.0431 20.8027 52.0458 19.736C53.0484 18.6693 53.5498 17.1013 53.5498 15.032V5.528H55.7898ZM66.9198 23.256C64.9144 23.256 63.2718 22.7973 61.9918 21.88C60.7331 20.9413 60.0291 19.672 59.8798 18.072H62.1838C62.2904 19.0533 62.7491 19.8533 63.5598 20.472C64.3918 21.0693 65.5011 21.368 66.8878 21.368C68.1038 21.368 69.0531 21.08 69.7358 20.504C70.4398 19.928 70.7918 19.2133 70.7918 18.36C70.7918 17.7627 70.5998 17.272 70.2158 16.888C69.8318 16.504 69.3411 16.2053 68.7438 15.992C68.1678 15.7573 67.3784 15.512 66.3758 15.256C65.0744 14.9147 64.0184 14.5733 63.2078 14.232C62.3971 13.8907 61.7038 13.3893 61.1278 12.728C60.5731 12.0453 60.2958 11.1387 60.2958 10.008C60.2958 9.15467 60.5518 8.36533 61.0638 7.64C61.5758 6.91467 62.3011 6.33867 63.2398 5.912C64.1784 5.48533 65.2451 5.272 66.4398 5.272C68.3171 5.272 69.8318 5.752 70.9838 6.712C72.1358 7.65067 72.7544 8.952 72.8398 10.616H70.5998C70.5358 9.592 70.1304 8.77067 69.3838 8.152C68.6584 7.512 67.6558 7.192 66.3758 7.192C65.2451 7.192 64.3278 7.45867 63.6238 7.992C62.9198 8.52533 62.5677 9.18667 62.5677 9.976C62.5677 10.6587 62.7704 11.224 63.1758 11.672C63.6024 12.0987 64.1251 12.44 64.7438 12.696C65.3624 12.9307 66.1944 13.1973 67.2398 13.496C68.4984 13.8373 69.5011 14.168 70.2478 14.488C70.9944 14.808 71.6344 15.2773 72.1678 15.896C72.7011 16.5147 72.9784 17.336 72.9998 18.36C72.9998 19.2987 72.7438 20.1413 72.2318 20.888C71.7198 21.6133 71.0051 22.1893 70.0878 22.616C69.1704 23.0427 68.1144 23.256 66.9198 23.256ZM93.0243 13.368C93.0243 14.136 93.0029 14.7227 92.9603 15.128H78.4643C78.5283 16.4507 78.8483 17.5813 79.4243 18.52C80.0003 19.4587 80.7576 20.1733 81.6963 20.664C82.6349 21.1333 83.6589 21.368 84.7683 21.368C86.2189 21.368 87.4349 21.016 88.4163 20.312C89.4189 19.608 90.0803 18.6587 90.4003 17.464H92.7683C92.3416 19.1707 91.4243 20.568 90.0163 21.656C88.6296 22.7227 86.8803 23.256 84.7683 23.256C83.1256 23.256 81.6536 22.8933 80.3523 22.168C79.0509 21.4213 78.0269 20.376 77.2803 19.032C76.5549 17.6667 76.1923 16.0773 76.1923 14.264C76.1923 12.4507 76.5549 10.8613 77.2803 9.496C78.0056 8.13067 79.0189 7.08533 80.3203 6.36C81.6216 5.63467 83.1043 5.272 84.7683 5.272C86.4323 5.272 87.8829 5.63467 89.1203 6.36C90.3789 7.08533 91.3389 8.06667 92.0003 9.304C92.6829 10.52 93.0243 11.8747 93.0243 13.368ZM90.7523 13.304C90.7736 12.0027 90.5069 10.8933 89.9523 9.976C89.4189 9.05867 88.6829 8.36533 87.7443 7.896C86.8056 7.42667 85.7816 7.192 84.6723 7.192C83.0083 7.192 81.5896 7.72533 80.4163 8.792C79.2429 9.85867 78.5923 11.3627 78.4643 13.304H90.7523Z" fill="white"/>
</svg>
