<svg width="63" height="33" viewBox="0 0 63 33" fill="none" xmlns="http://www.w3.org/2000/svg">
<path d="M15.1609 8.064C15.1609 9.984 14.5315 11.5307 13.2729 12.704C12.0142 13.8773 10.1262 14.464 7.60888 14.464H3.09688V24H0.856875V1.632H7.60888C10.1049 1.632 11.9822 2.21866 13.2409 3.392C14.5209 4.56533 15.1609 6.12267 15.1609 8.064ZM7.60888 12.544C11.1075 12.544 12.8569 11.0507 12.8569 8.064C12.8569 6.57067 12.4409 5.44 11.6089 4.672C10.7769 3.904 9.44354 3.52 7.60888 3.52H3.09688V12.544H7.60888ZM21.1594 0.32V24H18.9194V0.32H21.1594ZM25.2079 15.232C25.2079 13.44 25.5599 11.872 26.2639 10.528C26.9892 9.16267 27.9812 8.11733 29.2399 7.392C30.5199 6.64533 31.9599 6.272 33.5599 6.272C35.2239 6.272 36.6532 6.656 37.8479 7.424C39.0639 8.192 39.9385 9.17333 40.4719 10.368V6.528H42.7119V24H40.4719V20.128C39.9172 21.3227 39.0319 22.3147 37.8159 23.104C36.6212 23.872 35.1919 24.256 33.5279 24.256C31.9492 24.256 30.5199 23.8827 29.2399 23.136C27.9812 22.3893 26.9892 21.3333 26.2639 19.968C25.5599 18.6027 25.2079 17.024 25.2079 15.232ZM40.4719 15.264C40.4719 13.856 40.1839 12.6187 39.6079 11.552C39.0319 10.4853 38.2425 9.664 37.2399 9.088C36.2585 8.512 35.1705 8.224 33.9759 8.224C32.7385 8.224 31.6292 8.50133 30.6479 9.056C29.6665 9.61067 28.8879 10.4213 28.3119 11.488C27.7572 12.5333 27.4799 13.7813 27.4799 15.232C27.4799 16.6613 27.7572 17.92 28.3119 19.008C28.8879 20.0747 29.6665 20.896 30.6479 21.472C31.6292 22.0267 32.7385 22.304 33.9759 22.304C35.1705 22.304 36.2585 22.016 37.2399 21.44C38.2425 20.864 39.0319 20.0427 39.6079 18.976C40.1839 17.9093 40.4719 16.672 40.4719 15.264ZM62.2256 6.528L51.8576 32.224H49.5216L52.9136 23.904L45.7456 6.528H48.2096L54.1616 21.44L59.9216 6.528H62.2256Z" fill="white"/>
</svg>
